<?xml version="1.0" encoding="utf-8"?>
<!-- Generator: Adobe Illustrator 21.0.2, SVG Export Plug-In . SVG Version: 6.00 Build 0)  -->
<svg version="1.1" id="Layer_1" xmlns="http://www.w3.org/2000/svg" xmlns:xlink="http://www.w3.org/1999/xlink" x="0px" y="0px"
	 viewBox="0 0 26 26" style="enable-background:new 0 0 26 26;" xml:space="preserve">
<g>
	<path d="M0.6,3.4l22,22c0.8,0.8,2,0.8,2.8,0c0.8-0.8,0.8-2,0-2.8l-22-22c-0.8-0.8-2-0.8-2.8,0C-0.2,1.4-0.2,2.6,0.6,3.4"/>
	<path d="M3.4,25.4l22-22c0.8-0.8,0.8-2,0-2.8c-0.8-0.8-2-0.8-2.8,0l-22,22c-0.8,0.8-0.8,2,0,2.8C1.4,26.2,2.6,26.2,3.4,25.4"/>
</g>
</svg>
