<?xml version="1.0" encoding="utf-8"?>
<!-- Generator: Adobe Illustrator 22.0.0, SVG Export Plug-In . SVG Version: 6.00 Build 0)  -->
<svg version="1.1" id="Layer_1" xmlns="http://www.w3.org/2000/svg" xmlns:xlink="http://www.w3.org/1999/xlink" x="0px" y="0px"
	 viewBox="0 0 31.4 22" style="enable-background:new 0 0 31.4 22;" xml:space="preserve">
<path d="M1.6,0h28.3c0.4,0,0.8,0.2,1.1,0.5c0.3,0.3,0.5,0.7,0.5,1.1S31.3,2.4,31,2.7c-0.3,0.3-0.7,0.5-1.1,0.5H1.6
	C1.1,3.1,0.8,3,0.5,2.7C0.2,2.4,0,2,0,1.6s0.2-0.8,0.5-1.1C0.8,0.2,1.1,0,1.6,0z M1.6,18.9h28.3c0.4,0,0.8,0.2,1.1,0.5
	c0.3,0.3,0.5,0.7,0.5,1.1s-0.2,0.8-0.5,1.1c-0.3,0.3-0.7,0.5-1.1,0.5H1.6c-0.4,0-0.8-0.2-1.1-0.5C0.2,21.2,0,20.9,0,20.4
	s0.2-0.8,0.5-1.1C0.8,19,1.1,18.9,1.6,18.9z M1.6,9.4h28.3c0.4,0,0.8,0.2,1.1,0.5c0.3,0.3,0.5,0.7,0.5,1.1s-0.2,0.8-0.5,1.1
	c-0.3,0.3-0.7,0.5-1.1,0.5H1.6c-0.4,0-0.8-0.2-1.1-0.5C0.2,11.8,0,11.4,0,11s0.2-0.8,0.5-1.1C0.8,9.6,1.1,9.4,1.6,9.4z"/>
</svg>
