<?xml version="1.0" encoding="utf-8"?>
<!-- Generator: Adobe Illustrator 21.1.0, SVG Export Plug-In . SVG Version: 6.00 Build 0)  -->
<svg version="1.1" id="Layer_1" xmlns="http://www.w3.org/2000/svg" xmlns:xlink="http://www.w3.org/1999/xlink" x="0px" y="0px"
	 viewBox="0 0 26 26" style="enable-background:new 0 0 26 26;" xml:space="preserve">
<path d="M15.8,13l9.6-9.6c0.8-0.8,0.8-2,0-2.8c-0.8-0.8-2-0.8-2.8,0L13,10.2L3.4,0.6c-0.8-0.8-2-0.8-2.8,0c-0.8,0.8-0.8,2,0,2.8
	l9.6,9.6l-9.6,9.6c-0.8,0.8-0.8,2,0,2.8c0.8,0.8,2,0.8,2.8,0l9.6-9.6l9.6,9.6c0.8,0.8,2,0.8,2.8,0c0.8-0.8,0.8-2,0-2.8L15.8,13z"/>
</svg>
