<?xml version="1.0" encoding="utf-8"?>
<!-- Generator: Adobe Illustrator 21.1.0, SVG Export Plug-In . SVG Version: 6.00 Build 0)  -->
<svg version="1.1" id="Layer_1" xmlns="http://www.w3.org/2000/svg" xmlns:xlink="http://www.w3.org/1999/xlink" x="0px" y="0px"
	 viewBox="0 0 19 12" style="enable-background:new 0 0 19 12;" xml:space="preserve">
<path d="M17.5,0h-16C0.7,0,0,0.7,0,1.5v9C0,11.3,0.7,12,1.5,12h16c0.8,0,1.5-0.7,1.5-1.5v-9C19,0.7,18.3,0,17.5,0z M17.5,1
	C17.5,1,17.6,1,17.5,1l-7.4,5C9.8,6.2,9.2,6.2,8.9,6L1.4,1c0,0,0.1,0,0.1,0L17.5,1L17.5,1z M17.5,11h-16C1.2,11,1,10.8,1,10.5V1.9
	l7.4,4.9c0.3,0.2,0.7,0.3,1.1,0.3s0.8-0.1,1.1-0.3L18,1.9v8.6C18,10.8,17.8,11,17.5,11z"/>
</svg>
