<?xml version="1.0" encoding="utf-8"?>
<!-- Generator: Adobe Illustrator 18.0.0, SVG Export Plug-In . SVG Version: 6.00 Build 0)  -->
<!DOCTYPE svg PUBLIC "-//W3C//DTD SVG 1.1//EN" "http://www.w3.org/Graphics/SVG/1.1/DTD/svg11.dtd">
<svg version="1.1" id="Layer_1" xmlns="http://www.w3.org/2000/svg" xmlns:xlink="http://www.w3.org/1999/xlink" x="0px" y="0px"
	 viewBox="0 0 245 133" enable-background="new 0 0 245 133" xml:space="preserve">
<defs>
  <style type="text/css">
   <![CDATA[
    @font-face {
        font-family: "GriffosFont";
        src: url("../../fonts/GriffosFont.eot");
        src: url("../../fonts/GriffosFont.eot?#iefix") format("embedded-opentype"),
             url("../../fonts/GriffosFont.ttf") format("truetype"),
             url("../../fonts/GriffosFont.woff") format("woff"),
             url("../../fonts/GriffosFont.svg#GriffosFont") format("svg");
        font-weight: normal;
        font-style: normal;
   }
   ]]>
 </style>
</defs>
<g>
	<path display="none" fill="#80AD7F" stroke="#231F20" stroke-width="0.25" d="M57.2,13c30.6,21.7,32,15.1,56.4,5.1
		c-5.5,3.2-11.7,40-11.7,40l-8.7,7.5l8.9,11.2l4.1,31.9c0,0,10.8,3.7,11.7,7.1c2.9,10-65,21.6-72,12.5c13.7-2.9,16.1-21,16.1-21
		l-4.6-17.3l3.3-13.5l13-9.4L59.6,56.4V23.7C59.6,23.7,57.1,20.9,57.2,13z"/>
	<text transform="matrix(1.0009 0 0 1 2.2378 72.876)"><tspan x="0" y="0" fill="#231F20" font-family="'GriffosFont'" font-size="44.9352">as</tspan><tspan x="29.5" y="0" fill="#231F20" font-family="'GriffosFont'" font-size="36.7651">hli</tspan><tspan x="63.7" y="0" fill="#231F20" font-family="'GriffosFont'" font-size="44.9352">e</tspan></text>
	<g>
		<path fill="#231F20" d="M139,85.8c0-12.7-10.6-13.6-10.6-13.6V61.5c0,0,10.6-0.9,10.6-13.9V37.1c0-19.7,14.2-21.7,20.2-21.7
			c1.7,0,3,0.1,3,0.1v9.2c0,0-0.7,0-1.7,0c-3.2,0-10.9,1.1-10.9,13.1v12.9c0,12.4-10.1,15.9-10.1,15.9v0.2c0,0,10.1,3,10.1,15.8V97
			c0,12,7.6,13.1,10.9,13.1c1,0,1.7,0,1.7,0v9.2c0,0-1.2,0.2-3,0.2c-6,0-20.2-2-20.2-21.8V85.8z"/>
	</g>
	<g>
		<g>
			<path fill="#231F20" d="M118.5,67L118.5,67c-1.9,0.3-3.8,1.3-5.4,2.2c-1.8,1.1-3.2,2.2-4.6,3.4c-1.4,1.2-2.6,3.2-3.4,4.9
				c-0.8,1.7-1.3,3.6-1.3,5.8c0,3.6,0.5,7.1,1.5,10.6c1,3.5,1.5,7.1,1.5,10.7c0,3.8-0.6,7.2-1.9,10.3c-1.3,3.1-3,5.8-5.3,8
				c-2.2,2.3-4.8,4.1-7.8,5.6c-3,1.5-6.1,2.5-9.4,3.2v-2.4c4.8-1.5,8.2-3.4,10.3-5.6c2.1-2.2,3.4-4.7,3.9-7.5
				c0.5-2.7,0.4-5.7-0.1-8.8c-0.6-3.1-1.1-6.3-1.5-9.5c-0.4-3.2-0.6-6.5-0.3-9.7c0.2-3.3,1.4-6.4,3.4-9.4c2-3,4.3-5.4,6.8-7.2
				c2.5-1.8,5.3-3.3,8.5-4.6c-5.3-2.2-9.3-4.6-12-7.3c-2.7-2.7-4.6-5.5-5.7-8.4c-1.1-2.9-1.5-5.9-1.3-8.9c0.2-3.1,0.6-6.1,1.1-9.1
				c0.5-3,0.9-5.9,1.3-8.7c0.4-2.8,0.3-5.5-0.3-8c-0.6-2.5-2-4.7-4.1-6.7c-2.1-2-5.4-3.6-9.9-5V2.6c3.3,0.7,6.4,1.7,9.4,3.2
				c3,1.5,5.6,3.3,7.8,5.6c2.2,2.3,4,4.9,5.3,8c1.3,3,1.9,6.4,1.9,10.2c0,3.6-0.5,7.1-1.5,10.6c-1,3.5-1.5,7-1.5,10.6
				c0,2.3,0.4,4.3,1.3,6c0.8,1.8,1.7,3.8,3.1,5c1.4,1.2,3.2,2.5,4.9,3.2C114.8,65.7,116.6,66.7,118.5,67z"/>
		</g>
	</g>
	<path d="M78.7,6.5c-0.8,0.6-1.6,0.8-2.5,0.7c-0.9-0.1-1.7-0.5-2.5-1.2c-0.8-0.7-1.1-1.6-1.1-2.9c0-1,0.4-1.8,1.1-2.3
		c0.7-0.5,1.6-0.8,2.5-0.7c0.9,0,1.7,0.3,2.5,0.9c0.7,0.6,1.1,1.4,1.1,2.6C79.8,5,79.5,5.9,78.7,6.5z"/>
	<path d="M70.6,130.3c-0.5,0.4-1.1,0.6-1.7,0.5c-0.6-0.1-1.2-0.3-1.7-0.8c-0.5-0.5-0.8-1.1-0.8-1.9c0-0.7,0.3-1.2,0.8-1.6
		c0.5-0.3,1.1-0.5,1.7-0.5c0.6,0,1.2,0.2,1.7,0.6c0.5,0.4,0.8,1,0.8,1.7C71.4,129.3,71.1,129.9,70.6,130.3z"/>
	<path d="M80.6,131.8c0,0,0-1.4,0-2.5c-4,0.2-7.6-1.5-7.6-1.5s0.4,2.4-0.3,3.4C73,131.8,80.6,131.8,80.6,131.8z"/>
	<text transform="matrix(1.0009 0 0 1 165.0449 72.876)"><tspan x="0" y="0" fill="#231F20" font-family="'GriffosFont'" font-size="44.9352">we</tspan><tspan x="44.5" y="0" fill="#231F20" font-family="'GriffosFont'" font-size="36.7651">bb</tspan></text>
</g>
	<a id="anchor" xlink:href="/" target="_top">
        <rect x="0" y="0" width="100%" height="100%" fill-opacity="0"></rect>
    </a>
</svg>
