<!DOCTYPE svg PUBLIC "-//W3C//DTD SVG 1.1//EN" "http://www.w3.org/Graphics/SVG/1.1/DTD/svg11.dtd"><svg id="Layer_1" xmlns="http://www.w3.org/2000/svg" xmlns:xlink="http://www.w3.org/1999/xlink" viewBox="0 0 245 133"><defs><style>@font-face{font-family:&quot;GriffosFont&quot;;src:url(../../fonts/GriffosFont.eot);src:url(../../fonts/GriffosFont.eot?#iefix) format(&quot;embedded-opentype&quot;),url(../../fonts/GriffosFont.ttf) format(&quot;truetype&quot;),url(../../fonts/GriffosFont.woff) format(&quot;woff&quot;),url(../../fonts/GriffosFont.svg#GriffosFont) format(&quot;svg&quot;);font-weight:400;font-style:normal}</style></defs><text transform="matrix(1.0009 0 0 1 2.238 72.876)"><tspan x="0" y="0" fill="#231F20" font-family="'GriffosFont'" font-size="44.94">as</tspan><tspan x="29.5" y="0" fill="#231F20" font-family="'GriffosFont'" font-size="36.77">hli</tspan><tspan x="63.7" y="0" fill="#231F20" font-family="'GriffosFont'" font-size="44.94">e</tspan></text><path fill="#231F20" d="M139 85.8c0-12.7-10.6-13.6-10.6-13.6V61.5s10.6-.9 10.6-13.9V37.1c0-19.7 14.2-21.7 20.2-21.7 1.7 0 3 .1 3 .1v9.2h-1.7c-3.2 0-10.9 1.1-10.9 13.1v12.9c0 12.4-10.1 15.9-10.1 15.9v.2s10.1 3 10.1 15.8V97c0 12 7.6 13.1 10.9 13.1h1.7v9.2s-1.2.2-3 .2c-6 0-20.2-2-20.2-21.8V85.8zM118.5 67c-1.9.3-3.8 1.3-5.4 2.2-1.8 1.1-3.2 2.2-4.6 3.4-1.4 1.2-2.6 3.2-3.4 4.9-.8 1.7-1.3 3.6-1.3 5.8 0 3.6.5 7.1 1.5 10.6s1.5 7.1 1.5 10.7c0 3.8-.6 7.2-1.9 10.3-1.3 3.1-3 5.8-5.3 8-2.2 2.3-4.8 4.1-7.8 5.6s-6.1 2.5-9.4 3.2v-2.4c4.8-1.5 8.2-3.4 10.3-5.6 2.1-2.2 3.4-4.7 3.9-7.5.5-2.7.4-5.7-.1-8.8-.6-3.1-1.1-6.3-1.5-9.5-.4-3.2-.6-6.5-.3-9.7.2-3.3 1.4-6.4 3.4-9.4s4.3-5.4 6.8-7.2c2.5-1.8 5.3-3.3 8.5-4.6-5.3-2.2-9.3-4.6-12-7.3-2.7-2.7-4.6-5.5-5.7-8.4-1.1-2.9-1.5-5.9-1.3-8.9.2-3.1.6-6.1 1.1-9.1.5-3 .9-5.9 1.3-8.7.4-2.8.3-5.5-.3-8s-2-4.7-4.1-6.7c-2.1-2-5.4-3.6-9.9-5V2.6c3.3.7 6.4 1.7 9.4 3.2 3 1.5 5.6 3.3 7.8 5.6s4 4.9 5.3 8c1.3 3 1.9 6.4 1.9 10.2 0 3.6-.5 7.1-1.5 10.6s-1.5 7-1.5 10.6c0 2.3.4 4.3 1.3 6 .8 1.8 1.7 3.8 3.1 5 1.4 1.2 3.2 2.5 4.9 3.2 1.6.7 3.4 1.7 5.3 2z"/><path d="M78.7 6.5c-.8.6-1.6.8-2.5.7-.9-.1-1.7-.5-2.5-1.2s-1.1-1.6-1.1-2.9c0-1 .4-1.8 1.1-2.3.7-.5 1.6-.8 2.5-.7.9 0 1.7.3 2.5.9.7.6 1.1 1.4 1.1 2.6 0 1.4-.3 2.3-1.1 2.9zM70.6 130.3c-.5.4-1.1.6-1.7.5-.6-.1-1.2-.3-1.7-.8s-.8-1.1-.8-1.9c0-.7.3-1.2.8-1.6.5-.3 1.1-.5 1.7-.5.6 0 1.2.2 1.7.6.5.4.8 1 .8 1.7 0 1-.3 1.6-.8 2zM80.6 131.8v-2.5c-4 .2-7.6-1.5-7.6-1.5s.4 2.4-.3 3.4c.3.6 7.9.6 7.9.6z"/><text transform="matrix(1.0009 0 0 1 165.045 72.876)"><tspan x="0" y="0" fill="#231F20" font-family="'GriffosFont'" font-size="44.94">we</tspan><tspan x="44.5" y="0" fill="#231F20" font-family="'GriffosFont'" font-size="36.77">bb</tspan></text><a id="anchor" xlink:href="/" target="_top"><rect width="100%" height="100%" fill-opacity="0"/></a></svg>